<svg preserveAspectRatio="none" width="100%" height="100%" overflow="visible" style="display: block;" viewBox="0 0 53 53" fill="none" xmlns="http://www.w3.org/2000/svg">
<g id="Group 10">
<circle id="Ellipse 48" cx="26.5" cy="26.5" r="25.5" stroke="var(--stroke-0, white)" stroke-width="2"/>
<g id="work_history_24dp_1F1F1F_FILL0_wght200_GRAD0_opsz24 1">
<path id="Vector" d="M14.3079 38.6667C13.579 38.6667 12.9705 38.4226 12.4823 37.9344C11.9941 37.4462 11.75 36.8377 11.75 36.1088V20.6412C11.75 19.9123 11.9941 19.3038 12.4823 18.8156C12.9705 18.3274 13.579 18.0833 14.3079 18.0833H21.25V15.8908C21.25 15.1622 21.4941 14.5538 21.9823 14.0656C22.4705 13.5774 23.079 13.3333 23.8079 13.3333H28.1921C28.921 13.3333 29.5295 13.5774 30.0177 14.0656C30.5059 14.5538 30.75 15.1622 30.75 15.8908V18.0833H37.6921C38.421 18.0833 39.0295 18.3274 39.5177 18.8156C40.0059 19.3038 40.25 19.9123 40.25 20.6412V27.288C39.9982 27.1276 39.7456 26.988 39.492 26.8693C39.2381 26.7505 38.963 26.6394 38.6667 26.536V20.6412C38.6667 20.357 38.5754 20.1235 38.3928 19.9406C38.2099 19.758 37.9763 19.6667 37.6921 19.6667H14.3079C14.0237 19.6667 13.7901 19.758 13.6072 19.9406C13.4246 20.1235 13.3333 20.357 13.3333 20.6412V36.1088C13.3333 36.393 13.4246 36.6265 13.6072 36.8094C13.7901 36.992 14.0237 37.0833 14.3079 37.0833H26.1187C26.1776 37.3736 26.2405 37.6457 26.3076 37.8995C26.3746 38.1531 26.4557 38.4088 26.551 38.6667H14.3079ZM22.8333 18.0833H29.1667V15.8908C29.1667 15.6069 29.0754 15.3735 28.8928 15.1906C28.7099 15.008 28.4763 14.9167 28.1921 14.9167H23.8079C23.5237 14.9167 23.2901 15.008 23.1073 15.1906C22.9246 15.3735 22.8333 15.6069 22.8333 15.8908V18.0833ZM31.0105 39.9895C29.7813 38.7606 29.1667 37.2641 29.1667 35.5C29.1667 33.7359 29.7813 32.2394 31.0105 31.0105C32.2394 29.7813 33.7359 29.1667 35.5 29.1667C37.2641 29.1667 38.7606 29.7813 39.9895 31.0105C41.2187 32.2394 41.8333 33.7359 41.8333 35.5C41.8333 37.2641 41.2187 38.7606 39.9895 39.9895C38.7606 41.2187 37.2641 41.8333 35.5 41.8333C33.7359 41.8333 32.2394 41.2187 31.0105 39.9895ZM36.1088 35.2443V30.9329H34.8912V35.7557L38.1125 38.9774L38.9774 38.1125L36.1088 35.2443Z" fill="var(--fill-0, white)"/>
</g>
</g>
</svg>
