<svg preserveAspectRatio="none" width="100%" height="100%" overflow="visible" style="display: block;" viewBox="0 0 53 53" fill="none" xmlns="http://www.w3.org/2000/svg">
<g id="Group 11">
<circle id="Ellipse 47" cx="26.5" cy="26.5" r="25.5" stroke="var(--stroke-0, white)" stroke-width="2"/>
<g id="phone_in_talk_24dp_1F1F1F_FILL0_wght200_GRAD0_opsz24 2">
<path id="Vector" d="M35.8719 25.6057C35.689 22.6198 34.5527 20.082 32.463 17.9922C30.3733 15.9022 27.8354 14.7659 24.8495 14.5833V13C26.5648 13.0813 28.1699 13.4623 29.6649 14.1432C31.1598 14.8243 32.4711 15.7286 33.5986 16.8562C34.7262 17.9838 35.6306 19.2952 36.3117 20.7904C36.9928 22.2853 37.374 23.8904 37.4553 25.6057H35.8719ZM29.5386 25.6057C29.3557 24.3879 28.8329 23.3425 27.9703 22.4695C27.1076 21.5966 26.0674 21.079 24.8495 20.9167V19.3333C26.512 19.4956 27.9273 20.166 29.0953 21.3446C30.2635 22.5228 30.939 23.9432 31.1219 25.6057H29.5386ZM35.6404 39.125C32.9711 39.125 30.2349 38.4567 27.4316 37.1201C24.6283 35.7832 22.0188 33.907 19.6032 31.4914C17.2078 29.076 15.3418 26.4717 14.0049 23.6784C12.6683 20.8851 12 18.1539 12 15.4846C12 15.0096 12.1583 14.6087 12.475 14.2817C12.7917 13.955 13.1875 13.7917 13.6625 13.7917H17.5781C18.0085 13.7917 18.384 13.9272 18.7046 14.1982C19.0255 14.4692 19.2428 14.8169 19.3566 15.2412L20.1419 19.0167C20.215 19.4592 20.2018 19.8459 20.1023 20.1769C20.0028 20.5078 19.8272 20.7788 19.5755 20.9899L16.1016 24.2294C16.7511 25.4087 17.4691 26.5044 18.2558 27.5164C19.0424 28.5284 19.8813 29.487 20.7725 30.3921C21.6918 31.3118 22.6814 32.1669 23.7412 32.9575C24.8007 33.7481 25.9638 34.4947 27.2305 35.1971L30.6164 31.7502C30.8743 31.4721 31.164 31.289 31.4857 31.2008C31.8074 31.1124 32.1631 31.0946 32.5529 31.1474L35.8838 31.8294C36.3142 31.935 36.6635 32.1517 36.9316 32.4797C37.1994 32.8075 37.3333 33.1835 37.3333 33.6079V37.4625C37.3333 37.9375 37.17 38.3333 36.8433 38.65C36.5163 38.9667 36.1154 39.125 35.6404 39.125ZM15.3586 22.7434L18.3975 19.9485C18.4988 19.8672 18.5648 19.7556 18.5954 19.6136C18.6257 19.4713 18.6206 19.3394 18.5799 19.2178L17.8765 15.8623C17.8359 15.6997 17.7649 15.5779 17.6636 15.4969C17.562 15.4156 17.43 15.375 17.2677 15.375H14.0188C13.8968 15.375 13.7954 15.4156 13.7144 15.4969C13.6331 15.5779 13.5924 15.6794 13.5924 15.8013C13.6228 16.8833 13.7923 18.0128 14.1011 19.19C14.4096 20.3675 14.8288 21.552 15.3586 22.7434ZM28.7378 35.9401C29.8074 36.47 30.9476 36.8618 32.1586 37.1154C33.3693 37.3692 34.4244 37.5052 35.3237 37.5235C35.4456 37.5235 35.5471 37.4828 35.6281 37.4015C35.7094 37.3203 35.75 37.2188 35.75 37.0971V33.9182C35.75 33.7559 35.7094 33.624 35.6281 33.5224C35.5471 33.421 35.4253 33.3501 35.2627 33.3094L32.3336 32.7093C32.2119 32.6687 32.1054 32.6637 32.0141 32.6943C31.9226 32.7246 31.8261 32.7906 31.7248 32.8922L28.7378 35.9401Z" fill="var(--fill-0, white)"/>
</g>
</g>
</svg>
