<svg width="62" height="62" viewBox="0 0 62 62" fill="none" xmlns="http://www.w3.org/2000/svg">
<circle cx="31" cy="31" r="30" stroke="#4056A1" stroke-width="2"/>
<path d="M31.5084 12C28.2933 12.0035 25.1345 12.8432 22.3425 14.4366C19.5505 16.0301 17.2214 18.3224 15.5843 21.0882C13.9472 23.854 13.0583 26.998 13.0052 30.2112C12.9521 33.4244 13.7365 36.5961 15.2813 39.4144L13 49L22.5899 46.7198C25.0634 48.076 27.8143 48.8491 30.6324 48.98C33.4505 49.111 36.2613 48.5962 38.8499 47.4751C41.4386 46.354 43.7366 44.6562 45.5683 42.5116C47.4 40.3669 48.717 37.832 49.4185 35.1007C50.1201 32.3694 50.1878 29.5139 49.6163 26.7525C49.0448 23.991 47.8493 21.3967 46.1212 19.1678C44.3931 16.9389 42.1781 15.1343 39.6455 13.892C37.1128 12.6497 34.3295 12.0025 31.5084 12ZM22.2542 20.4067H27.2988C27.5271 20.4067 27.7461 20.4974 27.9075 20.6588C28.0689 20.8201 28.1596 21.039 28.1596 21.2672C28.1314 22.4147 28.3243 23.557 28.7278 24.6316C28.9016 24.9914 28.9398 25.4017 28.8354 25.7873C28.7311 26.1729 28.4912 26.508 28.1596 26.7312L26.3949 28.4521C27.1774 29.9795 28.2005 31.3711 29.4251 32.5737C30.6185 33.8177 32.0051 34.8608 33.5314 35.6628L35.2531 33.8988C36.1139 33.0384 36.5099 33.0384 37.3536 33.3309C38.4287 33.7343 39.5715 33.9271 40.7195 33.8988C40.9444 33.9093 41.1574 34.0033 41.3166 34.1625C41.4758 34.3216 41.5699 34.5345 41.5804 34.7593V39.8016C41.5699 40.0265 41.4758 40.2393 41.3166 40.3984C41.1574 40.5576 40.9444 40.6516 40.7195 40.6621C35.6556 40.4416 30.8555 38.3433 27.2557 34.7765C23.6818 31.1821 21.5815 26.382 21.3675 21.3188C21.3696 21.082 21.4628 20.855 21.628 20.6852C21.7931 20.5153 22.0174 20.4156 22.2542 20.4067Z" stroke="#4056A1" stroke-width="2" stroke-linecap="round" stroke-linejoin="round"/>
</svg>
